# xmcd CD database file
#
# Track frame offsets:
#	150
#	11781
#	23127
#	33617
#	45025
#	55873
#	66420
#	77197
#	86716
#	97656
#	109625
#	120101
#	139260
#	153255
#	165157
#	177389
#	190396
#	201169
#	213272
#	228426
#
# Disc length: 3251 seconds
#
# Revision: 0
# Processed by: cddbd v1.5.2PL0 Copyright (c) Steve Scherf et al.
# Submitted via: CDex 1.70beta2
#
DISCID=fb0cb114
DTITLE=COMPILATION - Platinum Country CD1
DYEAR=1900
DGENRE=Country
TTITLE0=Sixteen Tons
TTITLE1=Young Love
TTITLE2=Kisses Sweeter Than Wine
TTITLE3=Lonesome Me
TTITLE4=Pick Me Up On Your Way Down
TTITLE5=He'll Have To Go
TTITLE6=Hello Walls
TTITLE7=The Race is On
TTITLE8=King of The Road
TTITLE9=Make the World Go Away
TTITLE10=Flowers on the Wall
TTITLE11=Ode to Billie Joe
TTITLE12=Wichita Lineman
TTITLE13=Stand by your Man
TTITLE14=Okie from Muskogee
TTITLE15=I Never Promissed a Rose Garden
TTITLE16=Honky Tonk Blues
TTITLE17=The most Beautiful Girl
TTITLE18=I'm Not Lisa
TTITLE19=Silver Wings and Golden Rings
EXTD=
EXTT0=
EXTT1=
EXTT2=
EXTT3=
EXTT4=
EXTT5=
EXTT6=
EXTT7=
EXTT8=
EXTT9=
EXTT10=
EXTT11=
EXTT12=
EXTT13=
EXTT14=
EXTT15=
EXTT16=
EXTT17=
EXTT18=
EXTT19=
PLAYORDER=
